<?xml version="1.0" encoding="utf-8"?>
<!-- Generator: Adobe Illustrator 22.0.1, SVG Export Plug-In . SVG Version: 6.00 Build 0)  -->
<svg version="1.1" id="Layer_1" xmlns="http://www.w3.org/2000/svg" xmlns:xlink="http://www.w3.org/1999/xlink" x="0px" y="0px"
	 viewBox="0 0 385 390" style="enable-background:new 0 0 385 390;" xml:space="preserve">
<style type="text/css">
	.st0{clip-path:url(#SVGID_2_);}
	.st1{clip-path:url(#SVGID_4_);}
	.st2{fill:#DEDEDD;}
	.st3{fill:#5FE0ED;}
	.st4{fill:#353535;}
	.st5{fill:#FEDE31;}
	.st6{fill:#FF5A5A;}
</style>
<g>
	<g>
		<defs>
			<rect id="SVGID_1_" x="-1.4" y="1.3" width="387.3" height="387.3"/>
		</defs>
		<clipPath id="SVGID_2_">
			<use xlink:href="#SVGID_1_"  style="overflow:visible;"/>
		</clipPath>
		<g class="st0">
			<defs>
				<rect id="SVGID_3_" x="-1.4" y="1.3" width="387.3" height="387.3"/>
			</defs>
			<clipPath id="SVGID_4_">
				<use xlink:href="#SVGID_3_"  style="overflow:visible;"/>
			</clipPath>
			<g class="st1">
				<path class="st2" d="M283.4,155.8l4.5-1.5l-2.7-8.2l-4.5,1.5c-2.8,0.9-5.9-0.6-6.8-3.5c-0.5-1.6-0.2-3.4,0.8-4.8l2.8-3.8l-7-5.1
					l-2.8,3.8c-1.8,2.4-5.1,2.9-7.5,1.2c-1.4-1-2.2-2.6-2.2-4.4l0-4.7l-8.6,0l0,4.7c0,3-2.4,5.4-5.4,5.4c-1.7,0-3.3-0.8-4.4-2.2
					l-2.8-3.8l-7,5.1l2.8,3.8c1.7,2.4,1.2,5.8-1.2,7.5c-1.4,1-3.2,1.3-4.8,0.8l-4.5-1.5l-2.6,8.1l4.5,1.5c2.8,0.9,4.4,4,3.5,6.8
					c-0.5,1.6-1.8,2.9-3.5,3.5l-4.5,1.5l2.7,8.2l4.5-1.5c2.8-0.9,5.9,0.6,6.8,3.5c0.5,1.6,0.2,3.4-0.8,4.8l-2.8,3.8l7,5.1l2.8-3.8
					c1.8-2.4,5.1-2.9,7.5-1.2c1.4,1,2.2,2.6,2.2,4.4l0,4.7l8.6,0l0-4.7c0-3,2.4-5.4,5.4-5.4c1.7,0,3.3,0.8,4.4,2.2l2.8,3.8l7-5.1
					l-2.8-3.8c-1.7-2.4-1.2-5.8,1.2-7.5c1.4-1,3.2-1.3,4.8-0.8l4.5,1.5l2.6-8.1l-4.5-1.5c-2.8-0.9-4.4-4-3.5-6.8
					C280.5,157.6,281.8,156.3,283.4,155.8 M253.6,169.1c-4.5,0-8.1-3.6-8.1-8.1c0-4.5,3.6-8.1,8.1-8.1s8.1,3.6,8.1,8.1
					C261.7,165.5,258.1,169.1,253.6,169.1"/>
			</g>
			<g class="st1">
				<path class="st2" d="M164.4,95.3l4.5-1.5l-2.7-8.2l-4.5,1.5c-2.8,0.9-5.9-0.6-6.8-3.5c-0.5-1.6-0.2-3.4,0.8-4.8l2.8-3.8l-7-5.1
					l-2.8,3.8c-1.8,2.4-5.1,2.9-7.5,1.2c-1.4-1-2.2-2.6-2.2-4.4l0-4.7l-8.6,0l0,4.7c0,3-2.4,5.4-5.4,5.4c-1.7,0-3.3-0.8-4.4-2.2
					l-2.8-3.8l-7,5.1l2.8,3.8c1.7,2.4,1.2,5.8-1.2,7.5c-1.4,1-3.2,1.3-4.8,0.8l-4.5-1.5l-2.6,8.1l4.5,1.5c2.8,0.9,4.4,4,3.5,6.8
					c-0.5,1.6-1.8,2.9-3.5,3.5l-4.5,1.5l2.7,8.2l4.5-1.5c2.8-0.9,5.9,0.6,6.8,3.5c0.5,1.6,0.2,3.4-0.8,4.8l-2.8,3.8l7,5.1l2.8-3.8
					c1.8-2.4,5.1-2.9,7.5-1.2c1.4,1,2.2,2.6,2.2,4.4l0,4.7l8.6,0l0-4.7c0-3,2.4-5.4,5.4-5.4c1.7,0,3.3,0.8,4.4,2.2l2.8,3.8l7-5.1
					l-2.8-3.8c-1.7-2.4-1.2-5.8,1.2-7.5c1.4-1,3.2-1.3,4.8-0.8l4.5,1.5l2.6-8.1l-4.5-1.5c-2.8-0.9-4.4-4-3.5-6.8
					C161.5,97.1,162.8,95.8,164.4,95.3 M134.6,108.6c-4.5,0-8.1-3.6-8.1-8.1s3.6-8.1,8.1-8.1s8.1,3.6,8.1,8.1
					S139.1,108.6,134.6,108.6"/>
			</g>
			<g class="st1">
				<rect x="105.5" y="299.8" class="st3" width="72.6" height="24.2"/>
			</g>
			<g class="st1">
				<polygon class="st4" points="174.1,299.8 170.1,299.8 170.1,287.7 115.6,287.7 115.6,299.8 111.6,299.8 111.6,283.7 
					174.1,283.7 				"/>
			</g>
			<g class="st1">
				<path class="st2" d="M93.3,194.4v23.9l16.7,14.4c3.6,3.6,8.5,5.6,13.5,5.5l5-0.1l-18.6-16v-15.7c0.2-4.1-1.5-8.2-4.5-11v-1.1
					c0-7.5-4.4-13.5-11.9-13.5l-0.3,0.8c-1.8-0.8-3.8-1.1-5.7-0.8v1.6C91.3,185.1,93.5,189.6,93.3,194.4"/>
			</g>
			<g class="st1">
				<path class="st4" d="M127.2,239.6l-19.3-16.6v-16.6c0.2-3.5-1.2-7-3.8-9.4l-0.7-0.6v-2.1c0-5.7-3.1-11.5-9.9-11.5h-6.1v-0.4h-2
					v-3.6h8.1c8.2,0,13.9,6.4,13.9,15.6v0.3c3,3.2,4.7,7.5,4.5,11.9v14.7l17.9,15.3L127.2,239.6z"/>
			</g>
			<g class="st1">
				<path class="st4" d="M168,286.5h-4v-33.1c0-3.5-1.4-6.9-3.9-9.5l-35.2-35.2c-1.5,2.2-2.2,4.8-2.1,7.4c0.1,3.4,1.5,6.6,3.9,9.1
					l15.5,14.6l-18.7,0.2c-5.6,0-11-2.2-15-6.1l-17.3-14.9v-24.8c0-5.1-2.5-10.3-7.9-11.3v43.7l42.3,40.3v19.4h-4v-17.7l-42.3-40.3
					v-49.6h2c8.2,0,13.9,6.4,13.9,15.6v23l16,13.8c3.2,3.2,7.5,5,12,5c0.1,0,0.1,0,0.2,0l8.7-0.1l-8.3-7.8
					c-3.1-3.2-4.9-7.4-5.1-11.8c-0.2-4.4,1.4-8.8,4.6-11.9l1.4-1.4l38.1,38.1c3.3,3.3,5.1,7.7,5.1,12.3V286.5z"/>
			</g>
			<g class="st1">
				<rect x="206.5" y="299.8" class="st3" width="72.6" height="24.2"/>
			</g>
			<g class="st1">
				<polygon class="st4" points="273.1,299.8 269,299.8 269,287.7 214.5,287.7 214.5,299.8 210.4,299.8 210.4,283.7 273.1,283.7 
									"/>
			</g>
			<g class="st1">
				<path class="st2" d="M291.4,194.4v23.9l-16.7,14.4c-3.6,3.6-8.5,5.6-13.5,5.5l-5-0.1l18.6-16v-15.7c-0.2-4.1,1.5-8.2,4.5-11
					v-1.1c0-7.5,4.4-13.5,11.9-13.5l0.3,0.8c1.8-0.8,3.8-1.1,5.7-0.8v1.6C293.3,185.1,291.1,189.6,291.4,194.4"/>
			</g>
			<g class="st1">
				<path class="st4" d="M257.5,239.6l-2.6-3.1l17.9-15.3v-14.7c-0.1-4.4,1.5-8.7,4.5-11.9v-0.3c0-9.2,5.7-15.6,13.9-15.6h8.1v3.6
					h-2v0.4h-6.1c-6.8,0-9.9,5.8-9.9,11.5v2.1l-0.7,0.6c-2.6,2.4-4,5.9-3.8,9.4v16.6L257.5,239.6z"/>
			</g>
			<g class="st1">
				<path class="st4" d="M220.7,286.5h-4v-33.1c0-4.6,1.8-9.1,5.1-12.3l38.1-38.1l1.4,1.4c6.3,6.7,6.1,17.3-0.5,23.7l-8.3,7.9
					l8.7,0.1c4.5,0.1,8.9-1.7,12.1-4.9l16.1-13.9v-23c0-9.2,5.7-15.6,13.9-15.6h2v49.6L263,268.7v17.7h-4V267l42.3-40.3V183
					c-5.4,1-7.9,6.2-7.9,11.3v24.8l-17.4,15c-4,3.9-9.3,6.1-14.9,6l-18.7-0.2l15.5-14.7c4.3-4.4,5.1-11.2,1.8-16.4L224.6,244
					c-2.5,2.5-3.9,5.9-3.9,9.5V286.5z"/>
			</g>
			<g class="st1">
				<polygon class="st3" points="192.3,166 162.4,136.1 173.8,124.6 192.3,143.1 255.1,80.3 266.6,91.7 				"/>
			</g>
			<g class="st1">
				<path class="st4" d="M192.7,231.2h-0.9l-0.4-0.2c-36.5-16.9-59.8-53.5-59.7-93.7V98.9l56.6-33.1h7.9l42.2,24.7l-2,3.5
					l-41.3-24.2h-5.7l-53.6,31.4v36.1c-0.1,38.3,21.9,73.2,56.5,89.6c34.6-16.4,56.6-51.3,56.5-89.6v-24.2h4v24.2
					c0.2,40.2-23.2,76.8-59.7,93.7L192.7,231.2z"/>
			</g>
			<g class="st1">
				<rect x="89.2" y="148.6" class="st4" width="4" height="16.1"/>
			</g>
			<g class="st1">
				<rect x="83.2" y="154.6" class="st4" width="16.1" height="4"/>
			</g>
			<g class="st1">
				<rect x="276.8" y="88.1" class="st4" width="4" height="16.1"/>
			</g>
			<g class="st1">
				<rect x="270.7" y="94.1" class="st4" width="16.1" height="4"/>
			</g>
			<g class="st1">
				<path class="st3" d="M123.7,186.8c-4.5,0-8.1-3.6-8.1-8.1s3.6-8.1,8.1-8.1s8.1,3.6,8.1,8.1C131.8,183.2,128.1,186.8,123.7,186.8
					 M123.7,174.7c-2.2,0-4,1.8-4,4c0,2.2,1.8,4,4,4s4-1.8,4-4C127.7,176.5,125.9,174.7,123.7,174.7"/>
			</g>
			<g class="st1">
				<path class="st5" d="M297.2,136.4c-4.5,0-8.1-3.6-8.1-8.1c0-4.5,3.6-8.1,8.1-8.1c4.5,0,8.1,3.6,8.1,8.1
					C305.2,132.8,301.6,136.4,297.2,136.4 M297.2,124.3c-2.2,0-4,1.8-4,4c0,2.2,1.8,4,4,4c2.2,0,4-1.8,4-4
					C301.2,126.1,299.4,124.3,297.2,124.3"/>
			</g>
			<g class="st1">
				<path class="st5" d="M95.9,263.5c2.2,0,4,1.8,4,4c0,2.2-1.8,4-4,4s-4-1.8-4-4C91.8,265.3,93.7,263.5,95.9,263.5"/>
			</g>
			<g class="st1">
				<path class="st6" d="M206.8,237.3c2.2,0,4,1.8,4,4c0,2.2-1.8,4-4,4c-2.2,0-4-1.8-4-4C202.8,239.1,204.6,237.3,206.8,237.3"/>
			</g>
			<g class="st1">
				<path class="st2" d="M301.6,277.6c2.2,0,4,1.8,4,4c0,2.2-1.8,4-4,4c-2.2,0-4-1.8-4-4C297.6,279.4,299.4,277.6,301.6,277.6"/>
			</g>
			<g class="st1">
				<polygon class="st2" points="233,96.7 194,73.9 192.3,73.9 192.3,137.4 				"/>
			</g>
			<g class="st1">
				<path class="st2" d="M167.1,146.5h-26.8c3,32.6,22.7,61.4,52,76v-50.8L167.1,146.5z"/>
			</g>
			<g class="st1">
				<path class="st6" d="M156.7,136.1l17.1-17.1l18.5,18.5V73.9h-1.7l-50.7,29.7v33.8c0,3.1,0.2,6.1,0.4,9.2h26.8L156.7,136.1z"/>
			</g>
			<g class="st1">
				<path class="st2" d="M244.7,137.3v-18.1l-27.3,27.3h26.8C244.6,143.5,244.7,140.4,244.7,137.3"/>
			</g>
			<g class="st1">
				<path class="st6" d="M217.5,146.5l-25.2,25.2v50.8c29.3-14.6,49-43.4,52-76H217.5z"/>
			</g>
		</g>
	</g>
</g>
</svg>
